<?xml version="1.0" encoding="utf-8"?>
<!-- Generator: Adobe Illustrator 16.0.0, SVG Export Plug-In . SVG Version: 6.00 Build 0)  -->
<!DOCTYPE svg PUBLIC "-//W3C//DTD SVG 1.1//EN" "http://www.w3.org/Graphics/SVG/1.1/DTD/svg11.dtd">
<svg version="1.1" id="Layer_1" xmlns="http://www.w3.org/2000/svg" xmlns:xlink="http://www.w3.org/1999/xlink" x="0px" y="0px"
	 width="300px" height="300px" viewBox="0 0 300 300" enable-background="new 0 0 300 300" xml:space="preserve">
<linearGradient id="SVGID_1_" gradientUnits="userSpaceOnUse" x1="92.1958" y1="206.8281" x2="211.9794" y2="87.0445" gradientTransform="matrix(0.9999 -0.0137 0.0137 0.9999 -2.0449 2.0479)">
	<stop  offset="0" style="stop-color:#00FFC3"/>
	<stop  offset="0.4262" style="stop-color:#13F7DA"/>
	<stop  offset="1" style="stop-color:#32EAFF"/>
</linearGradient>
<circle fill="url(#SVGID_1_)" cx="148.585" cy="150.437" r="90.277"/>
<path fill="#FFFFFF" d="M148.569,234.579c-0.002,0-0.004,0-0.006,0c-22.229-0.002-43.199-8.603-59.044-24.219
	c-15.86-15.632-24.763-36.504-25.068-58.771c-0.635-46.393,36.592-84.652,82.984-85.288c22.701-0.3,44.093,8.317,60.218,24.211
	c15.86,15.632,24.764,36.505,25.068,58.773c0.308,22.473-8.155,43.721-23.828,59.829c-15.674,16.108-36.683,25.149-59.156,25.457
	C149.346,234.576,148.96,234.579,148.569,234.579z M148.609,71.293c-0.37,0-0.735,0.002-1.106,0.007
	c-21.138,0.29-40.898,8.793-55.641,23.945s-22.702,35.137-22.413,56.275c0.287,20.944,8.661,40.576,23.579,55.278
	c14.904,14.688,34.626,22.779,55.535,22.78c0.002,0,0.004,0,0.006,0c0.368,0,0.731-0.003,1.1-0.008
	c21.138-0.289,40.898-8.793,55.64-23.943c14.742-15.151,22.702-35.137,22.412-56.274c-0.286-20.945-8.66-40.577-23.578-55.281
	C189.239,79.383,169.517,71.293,148.609,71.293z"/>
<circle fill="#FFFFFF" cx="148.586" cy="150.437" r="70.495"/>
<linearGradient id="SVGID_2_" gradientUnits="userSpaceOnUse" x1="140.5293" y1="93.2129" x2="158.8418" y2="93.2129" gradientTransform="matrix(0.9855 -0.1694 0.1694 0.9855 -23.3467 27.5078)">
	<stop  offset="0" style="stop-color:#00FFC3"/>
	<stop  offset="0.4262" style="stop-color:#13F7DA"/>
	<stop  offset="1" style="stop-color:#32EAFF"/>
</linearGradient>
<polygon fill="url(#SVGID_2_)" points="138.49,85.433 142.251,90.604 148.642,90.438 144.886,95.611 147.018,101.638 
	140.937,99.665 135.864,103.555 135.861,97.162 130.594,93.54 136.673,91.562 "/>
<linearGradient id="SVGID_3_" gradientUnits="userSpaceOnUse" x1="141.2339" y1="94.3716" x2="159.5449" y2="94.3716" gradientTransform="matrix(0.5771 -0.8167 0.8167 0.5771 -61.0352 185.8589)">
	<stop  offset="0" style="stop-color:#00FFC3"/>
	<stop  offset="0.4262" style="stop-color:#13F7DA"/>
	<stop  offset="1" style="stop-color:#32EAFF"/>
</linearGradient>
<polygon fill="url(#SVGID_3_)" points="95.713,112.475 102.027,113.473 106.43,108.837 107.432,115.15 113.201,117.904 
	107.507,120.809 106.67,127.146 102.148,122.627 95.862,123.792 98.762,118.094 "/>
<linearGradient id="SVGID_4_" gradientUnits="userSpaceOnUse" x1="144.3286" y1="91.0171" x2="154.5736" y2="105.1022" gradientTransform="matrix(-0.8167 -0.5771 0.5771 -0.8167 182.6372 362.1699)">
	<stop  offset="0" style="stop-color:#00FFC3"/>
	<stop  offset="0.4262" style="stop-color:#13F7DA"/>
	<stop  offset="1" style="stop-color:#32EAFF"/>
</linearGradient>
<polygon fill="url(#SVGID_4_)" points="111.629,204.622 112.626,198.308 107.991,193.905 114.304,192.902 117.059,187.133 
	119.962,192.828 126.301,193.664 121.782,198.187 122.946,204.472 117.249,201.572 "/>
<linearGradient id="SVGID_5_" gradientUnits="userSpaceOnUse" x1="148.6162" y1="87.5288" x2="145.7968" y2="105.3917" gradientTransform="matrix(-0.9855 0.1694 -0.1694 -0.9855 321.2568 276.8477)">
	<stop  offset="0" style="stop-color:#00FFC3"/>
	<stop  offset="0.4262" style="stop-color:#13F7DA"/>
	<stop  offset="1" style="stop-color:#32EAFF"/>
</linearGradient>
<polygon fill="url(#SVGID_5_)" points="160.999,215.748 157.24,210.577 150.849,210.743 154.604,205.569 152.472,199.542 
	158.552,201.516 163.625,197.626 163.627,204.019 168.895,207.641 162.815,209.618 "/>
<linearGradient id="SVGID_6_" gradientUnits="userSpaceOnUse" x1="154.8301" y1="91.1914" x2="140.0199" y2="101.9637" gradientTransform="matrix(-0.5771 0.8167 -0.8167 -0.5771 358.9453 118.4976)">
	<stop  offset="0" style="stop-color:#00FFC3"/>
	<stop  offset="0.4262" style="stop-color:#13F7DA"/>
	<stop  offset="1" style="stop-color:#32EAFF"/>
</linearGradient>
<polygon fill="url(#SVGID_6_)" points="203.776,188.705 197.461,187.708 193.059,192.346 192.056,186.029 186.287,183.276 
	191.981,180.372 192.819,174.034 197.341,178.553 203.625,177.39 200.728,183.087 "/>
<linearGradient id="SVGID_7_" gradientUnits="userSpaceOnUse" x1="146.5679" y1="102.2095" x2="149.3876" y2="84.3442" gradientTransform="matrix(0.8167 0.5771 -0.5771 0.8167 115.2769 -57.8105)">
	<stop  offset="0" style="stop-color:#00FFC3"/>
	<stop  offset="0.4262" style="stop-color:#13F7DA"/>
	<stop  offset="1" style="stop-color:#32EAFF"/>
</linearGradient>
<polygon fill="url(#SVGID_7_)" points="187.861,96.559 186.86,102.874 191.496,107.276 185.184,108.279 182.431,114.047 
	179.527,108.354 173.188,107.517 177.706,102.995 176.542,96.709 182.24,99.608 "/>
<linearGradient id="SVGID_8_" gradientUnits="userSpaceOnUse" x1="24.3521" y1="150.5854" x2="271.9492" y2="150.5854" gradientTransform="matrix(0.8491 -0.1553 0.2279 1.2457 -11.5166 -12.8877)">
	<stop  offset="0" style="stop-color:#00FFC3"/>
	<stop  offset="0.4262" style="stop-color:#13F7DA"/>
	<stop  offset="1" style="stop-color:#32EAFF"/>
</linearGradient>
<polygon fill="url(#SVGID_8_)" points="259.4,163.635 49.177,202.091 37.772,139.737 247.994,101.283 "/>
<g>
	
		<linearGradient id="SVGID_9_" gradientUnits="userSpaceOnUse" x1="24.2607" y1="151.1094" x2="271.8584" y2="151.1094" gradientTransform="matrix(0.758 -0.1386 0.1634 0.893 11.6777 37.2681)">
		<stop  offset="0" style="stop-color:#00FFC3"/>
		<stop  offset="0.4262" style="stop-color:#13F7DA"/>
		<stop  offset="1" style="stop-color:#32EAFF"/>
	</linearGradient>
	<polygon fill="url(#SVGID_9_)" points="246.509,156.872 58.84,191.201 50.663,146.5 238.331,112.172 	"/>
	<path fill="#FFFFFF" d="M56.831,194.11l-9.077-49.619l192.587-35.229l9.077,49.619L56.831,194.11z M53.572,148.51l7.277,39.782
		l182.75-33.43l-7.278-39.781L53.572,148.51z"/>
</g>
<g>
	<path fill="#FFFFFF" stroke="#FFFFFF" stroke-miterlimit="10" d="M88.45,168.273c-0.325,0.783-0.996,1.571-2.011,2.363
		c-1.014,0.793-2.413,1.354-4.195,1.683c-2.281,0.42-4.301,0.037-6.061-1.147c-1.759-1.184-2.852-2.935-3.279-5.25l-0.726-3.933
		c-0.427-2.315-0.081-4.33,1.04-6.047c1.121-1.715,2.777-2.774,4.971-3.18c2.184-0.402,4-0.183,5.449,0.662
		c1.447,0.844,2.341,2.111,2.68,3.802l-0.012,0.084l-2.464,0.454c-0.284-1.095-0.874-1.93-1.771-2.506
		c-0.896-0.575-2.066-0.73-3.508-0.465c-1.459,0.27-2.534,1.032-3.225,2.287c-0.689,1.258-0.879,2.724-0.57,4.399l0.729,3.954
		c0.312,1.694,1.067,2.998,2.266,3.909c1.198,0.912,2.566,1.227,4.104,0.943c1.083-0.2,1.943-0.508,2.581-0.923
		c0.637-0.415,1.071-0.833,1.3-1.255l-0.798-4.328l-4.182,0.771l-0.375-2.032l6.763-1.247L88.45,168.273z"/>
	<path fill="#FFFFFF" stroke="#FFFFFF" stroke-miterlimit="10" d="M95.034,161.122l1.525,8.271l-2.582,0.477l-3.517-19.072
		l6.907-1.273c2.089-0.386,3.769-0.217,5.041,0.507c1.271,0.723,2.07,1.968,2.396,3.733c0.18,0.979,0.082,1.877-0.295,2.697
		c-0.377,0.819-1.016,1.533-1.917,2.143c1.112,0.147,1.968,0.562,2.567,1.24c0.6,0.681,1.004,1.585,1.212,2.711l0.331,1.796
		c0.109,0.595,0.273,1.116,0.492,1.563c0.218,0.448,0.516,0.79,0.894,1.027l0.058,0.314l-2.661,0.491
		c-0.396-0.233-0.695-0.631-0.897-1.19c-0.203-0.558-0.36-1.144-0.473-1.755l-0.321-1.743c-0.19-1.031-0.646-1.807-1.364-2.325
		c-0.719-0.518-1.585-0.683-2.599-0.496L95.034,161.122z M94.659,159.09l4.063-0.749c1.459-0.27,2.459-0.739,2.999-1.411
		c0.541-0.674,0.706-1.575,0.497-2.71c-0.198-1.072-0.664-1.846-1.397-2.319c-0.733-0.473-1.76-0.588-3.08-0.344l-4.326,0.797
		L94.659,159.09z"/>
	<path fill="#FFFFFF" stroke="#FFFFFF" stroke-miterlimit="10" d="M122.048,155.544l-8.743,1.612l1.257,6.816l10.08-1.859
		l0.375,2.031l-12.662,2.335l-3.52-19.085l12.518-2.309l0.375,2.032l-9.936,1.833l1.139,6.174l8.743-1.612L122.048,155.544z"/>
	<path fill="#FFFFFF" stroke="#FFFFFF" stroke-miterlimit="10" d="M138.071,156.655l-7.995,1.475l-0.902,5.248l-2.635,0.486
		l3.859-20.446l2.216-0.409l10.781,17.746l-2.635,0.486L138.071,156.655z M130.476,155.82l6.423-1.185l-4.749-8.111l-0.078,0.015
		L130.476,155.82z"/>
	<path fill="#FFFFFF" stroke="#FFFFFF" stroke-miterlimit="10" d="M156.387,140.726l-6.135,1.131l3.146,17.053l-2.583,0.477
		l-3.146-17.053l-6.121,1.129l-0.375-2.032l14.838-2.737L156.387,140.726z"/>
	<path fill="#FFFFFF" stroke="#FFFFFF" stroke-miterlimit="10" d="M174.889,135.212l2.582-0.476l2.546,13.804
		c0.313,1.703,0.023,3.155-0.871,4.355c-0.895,1.199-2.203,1.958-3.925,2.276c-1.834,0.338-3.381,0.14-4.636-0.597
		c-1.257-0.734-2.026-1.994-2.31-3.776l0.012-0.084l2.477-0.457c0.218,1.181,0.68,2.006,1.386,2.477s1.604,0.605,2.696,0.404
		c0.953-0.176,1.672-0.641,2.156-1.394c0.484-0.754,0.628-1.667,0.431-2.741L174.889,135.212z"/>
	<path fill="#FFFFFF" stroke="#FFFFFF" stroke-miterlimit="10" d="M199.128,142.372c0.431,2.334,0.064,4.402-1.098,6.207
		c-1.163,1.805-2.897,2.92-5.205,3.346c-2.228,0.411-4.181-0.024-5.858-1.306c-1.678-1.281-2.73-3.087-3.161-5.421l-0.626-3.396
		c-0.429-2.323-0.089-4.388,1.02-6.191c1.108-1.805,2.777-2.911,5.005-3.322c2.308-0.425,4.326-0.001,6.057,1.275
		c1.73,1.275,2.812,3.08,3.241,5.412L199.128,142.372z M195.915,139.427c-0.322-1.748-1.059-3.094-2.208-4.039
		c-1.15-0.945-2.521-1.27-4.111-0.977c-1.503,0.277-2.6,1.057-3.288,2.341c-0.689,1.285-0.873,2.8-0.551,4.548l0.631,3.421
		c0.325,1.765,1.04,3.125,2.142,4.077c1.102,0.954,2.404,1.292,3.907,1.014c1.6-0.295,2.766-1.085,3.499-2.373
		c0.734-1.288,0.938-2.818,0.61-4.592L195.915,139.427z"/>
	<path fill="#FFFFFF" stroke="#FFFFFF" stroke-miterlimit="10" d="M205.019,149.39l-3.521-19.085l6.227-1.148
		c1.992-0.367,3.632-0.224,4.918,0.429c1.286,0.652,2.087,1.84,2.404,3.561c0.156,0.848,0.025,1.655-0.393,2.424
		c-0.419,0.768-1.039,1.396-1.862,1.881c1.198,0.032,2.209,0.429,3.032,1.189c0.822,0.761,1.342,1.727,1.558,2.897
		c0.322,1.748,0.002,3.188-0.959,4.318c-0.962,1.131-2.412,1.875-4.353,2.232L205.019,149.39z M205.577,137.943l4.182-0.771
		c0.961-0.177,1.694-0.586,2.199-1.226c0.506-0.64,0.672-1.433,0.498-2.376c-0.19-1.03-0.658-1.742-1.404-2.133
		c-0.745-0.391-1.729-0.474-2.952-0.248l-3.645,0.672L205.577,137.943z M205.951,139.975l1.274,6.907l4.47-0.824
		c1.171-0.216,2.031-0.673,2.58-1.373c0.549-0.699,0.725-1.581,0.528-2.644c-0.205-1.114-0.64-1.938-1.303-2.474
		c-0.663-0.534-1.563-0.696-2.699-0.487L205.951,139.975z"/>
	<path fill="#FFFFFF" stroke="#FFFFFF" stroke-miterlimit="10" d="M224.075,139.397l-2.581,0.476l-2.364-12.82l2.581-0.476
		L224.075,139.397z M225.245,145.66l-2.596,0.479l-0.493-2.673l2.596-0.479L225.245,145.66z"/>
</g>
</svg>
