<?xml version="1.0" encoding="utf-8"?>
<!-- Generator: Adobe Illustrator 16.0.0, SVG Export Plug-In . SVG Version: 6.00 Build 0)  -->
<!DOCTYPE svg PUBLIC "-//W3C//DTD SVG 1.1//EN" "http://www.w3.org/Graphics/SVG/1.1/DTD/svg11.dtd">
<svg version="1.1" id="Layer_1" xmlns="http://www.w3.org/2000/svg" xmlns:xlink="http://www.w3.org/1999/xlink" x="0px" y="0px"
	 width="500px" height="500px" viewBox="0 0 500 500" enable-background="new 0 0 500 500" xml:space="preserve">
<g>
	
		<rect x="152.061" y="-17.851" transform="matrix(0.5061 0.8624 -0.8624 0.5061 155.0703 -90.1713)" fill="#D1D3D4" width="8.42" height="216.34"/>
</g>
<g>
	
		<rect x="245.739" y="36.235" transform="matrix(0.5 0.866 -0.866 0.5 341.4878 -91.4603)" fill="#D1D3D4" width="8.421" height="427.532"/>
</g>
<g>
	
		<rect x="32.865" y="245.792" transform="matrix(0.8681 0.4964 -0.4964 0.8681 156.8465 -90.2186)" fill="#D1D3D4" width="430.614" height="8.42"/>
</g>
<g>
	<rect x="416.511" y="124.539" fill="#FFFFFF" width="37.13" height="37.13"/>
</g>
<path fill="#D1D3D4" d="M457.851,165.879h-45.55v-45.551h45.55V165.879z M420.721,157.459h28.71v-28.71h-28.71V157.459z"/>
<g>
	<rect x="46.258" y="338.305" fill="#FFFFFF" width="37.13" height="37.13"/>
</g>
<path fill="#D1D3D4" d="M87.598,379.645h-45.55v-45.55h45.55V379.645z M50.468,371.225h28.709v-28.71H50.468V371.225z"/>
<g>
	<rect x="46.258" y="124.539" fill="#FFFFFF" width="37.13" height="37.13"/>
</g>
<path fill="#D1D3D4" d="M87.598,165.879h-45.55v-45.551h45.55V165.879z M50.468,157.459h28.709v-28.71H50.468V157.459z"/>
<linearGradient id="SVGID_1_" gradientUnits="userSpaceOnUse" x1="127.332" y1="130.2822" x2="414.3135" y2="410.481">
	<stop  offset="0" style="stop-color:#6100ff"/>
	<stop  offset="1" style="stop-color:#a332ff"/>
</linearGradient>
<path fill="url(#SVGID_1_)" d="M427.125,333.493L269.001,59.61h4.325V12.857h-46.753V59.61h18.565v380.783h-18.565v46.753h46.753
	v-31.317l138.373-79.891v4.309h46.753v-46.754H427.125z M421.57,343.116l6.933,12.009l-7.181,4.146v-16.154H421.57z M236.196,49.987
	V22.48h27.507v27.507h-0.258l-9.329-16.159l-4.167,2.406h-4.812v13.753H236.196z M263.703,450.273l-8.942,5.163v-5.42h8.942V450.273
	z M263.703,477.523h-27.507v-27.507h8.942v13.753h4.812l2.406,4.167l11.348-6.552V477.523z M273.326,444.718v-4.324h-18.565V59.61
	h3.128l158.125,273.883h-4.314v31.334L273.326,444.718z M448.829,370.624h-27.507v-0.242l16.159-9.329l-2.406-4.167l4.167-2.405
	l-6.561-11.364h16.147V370.624z"/>
<g>
	<rect x="236.196" y="22.48" fill="#FFFFFF" width="27.25" height="27.507"/>
</g>
<g>
	<rect x="421.57" y="343.116" fill="#FFFFFF" width="27.259" height="27.508"/>
</g>
<g>
	<rect x="236.196" y="450.017" fill="#FFFFFF" width="27.507" height="27.507"/>
</g>
</svg>
