<?xml version="1.0" encoding="utf-8"?>
<!-- Generator: Adobe Illustrator 16.0.0, SVG Export Plug-In . SVG Version: 6.00 Build 0)  -->
<!DOCTYPE svg PUBLIC "-//W3C//DTD SVG 1.1//EN" "http://www.w3.org/Graphics/SVG/1.1/DTD/svg11.dtd">
<svg version="1.1" xmlns="http://www.w3.org/2000/svg" xmlns:xlink="http://www.w3.org/1999/xlink" x="0px" y="0px" width="300px"
	 height="100px" viewBox="0 0 300 100" enable-background="new 0 0 300 100" xml:space="preserve">
<g id="Layer_2">
</g>
<g id="Layer_7">
	<g>
		<g>
			<g>
				<path fill="#666" d="M22.629,17.953v10.919h7.428v9.5h-7.428v20.133c0,1.57,0.318,2.699,0.954,3.39s1.495,1.035,2.578,1.035
					c0.866,0,1.549-0.026,2.05-0.081c0.5-0.055,1.143-0.162,1.928-0.325l0.975,10.148c-1.516,0.351-2.882,0.602-4.1,0.751
					c-1.218,0.148-2.652,0.223-4.303,0.223c-4.52,0-7.943-1.203-10.27-3.612c-2.328-2.408-3.491-6.224-3.491-11.446V38.371H2.78
					v-9.5h6.17V17.953H22.629z"/>
			</g>
			<g>
				<path fill="#666" d="M71.156,50.914c0-6.847,1.488-12.367,4.465-16.562c2.977-4.194,7.185-6.292,12.625-6.292
					c2.327,0,4.37,0.548,6.129,1.644c1.759,1.096,3.274,2.659,4.546,4.688l0.934-5.521h12.015v42.216
					c0,5.871-2.017,10.58-6.048,14.126c-4.033,3.544-9.458,5.317-16.277,5.317c-2.273,0-4.655-0.312-7.144-0.934
					c-2.49-0.623-4.858-1.461-7.104-2.517l2.233-10.147c2.002,0.865,3.91,1.508,5.723,1.928c1.813,0.419,3.883,0.629,6.211,0.629
					c2.814,0,4.965-0.758,6.454-2.273c1.488-1.516,2.232-3.586,2.232-6.211v-2.232c-1.245,1.598-2.693,2.809-4.343,3.633
					c-1.651,0.826-3.532,1.238-5.643,1.238c-5.413,0-9.6-2.002-12.563-6.008c-2.963-4.004-4.445-9.295-4.445-15.871V50.914z
					 M84.835,51.766c0,3.572,0.521,6.354,1.563,8.342c1.042,1.989,2.794,2.983,5.257,2.983c1.488,0,2.767-0.229,3.836-0.69
					c1.069-0.459,1.955-1.162,2.659-2.11V41.861c-0.677-1.028-1.549-1.826-2.618-2.395c-1.069-0.568-2.334-0.854-3.795-0.854
					c-2.436,0-4.195,1.124-5.277,3.369c-1.083,2.247-1.624,5.224-1.624,8.932V51.766z"/>
			</g>
			<g>
				<path fill="#666" d="M154.893,51.766c0,6.685-1.434,12.002-4.303,15.953s-7.117,5.926-12.746,5.926
					c-2.408,0-4.505-0.521-6.292-1.562c-1.786-1.041-3.302-2.537-4.546-4.485l-0.893,5.196H114.22V9.469h13.72v23.665
					c1.218-1.624,2.631-2.875,4.242-3.754c1.61-0.879,3.47-1.319,5.582-1.319c5.654,0,9.924,2.07,12.807,6.21
					c2.881,4.141,4.322,9.688,4.322,16.644V51.766z M141.213,50.914c0-3.897-0.486-6.922-1.461-9.073s-2.788-3.228-5.439-3.228
					c-1.488,0-2.767,0.278-3.836,0.833c-1.069,0.666-1.915,1.359-2.537,2.415V60.29c0.649,0.948,1.501,1.651,2.557,2.11
					c1.055,0.461,2.354,0.69,3.896,0.69c2.706,0,4.521-0.94,5.44-2.821s1.379-4.715,1.379-8.504V50.914z"/>
			</g>
			<g>
				<path fill="#666" d="M58.432,73.158c-0.379-0.703-0.724-1.488-1.035-2.354s-0.575-1.759-0.792-2.679
					c-1.299,1.812-2.869,3.254-4.708,4.322c-1.841,1.069-4.073,1.604-6.698,1.604c-4.167,0-7.557-1.203-10.168-3.612
					c-2.612-2.408-3.917-5.615-3.917-9.62c0-4.357,1.63-7.719,4.891-10.088c3.261-2.367,8.22-3.551,14.877-3.551h4.993v-3.126
					c0-1.867-0.44-3.302-1.319-4.303c-0.88-1.001-2.24-1.502-4.08-1.502c-1.57,0-2.74,0.372-3.511,1.116
					c-0.771,0.744-1.157,1.901-1.157,3.471l-13.273-0.041l-0.082-0.243c-0.189-4.005,1.475-7.354,4.993-10.046
					c3.518-2.693,8.172-4.039,13.963-4.039c5.412,0,9.803,1.354,13.172,4.059c3.369,2.707,5.054,6.576,5.054,11.609v16.562
					c0,2.354,0.196,4.533,0.588,6.536c0.392,2.002,0.98,3.991,1.766,5.967L58.432,73.158z M49.38,64.269
					c1.353,0,2.598-0.271,3.734-0.812s2.056-1.244,2.76-2.111v-6.859h-4.871c-2.166,0-3.742,0.527-4.729,1.582
					c-0.988,1.056-1.481,2.396-1.481,4.02c0,1.244,0.426,2.252,1.278,3.023C46.924,63.883,48.026,64.269,49.38,64.269z"/>
			</g>
			<g>
				<path fill="#666" d="M182.799,67.597c-1.407,1.948-3.133,3.444-5.176,4.485s-4.351,1.562-6.921,1.562
					c-4.546,0-8.112-1.461-10.696-4.384s-3.876-7.454-3.876-13.599V28.872h13.68v26.873c0,2.463,0.467,4.303,1.4,5.52
					c0.934,1.219,2.266,1.827,3.998,1.827c1.461,0,2.746-0.202,3.856-0.608c1.109-0.406,2.056-1.016,2.841-1.827V28.872h13.721
					v43.921h-11.975L182.799,67.597z"/>
			</g>
			<g>
				<path fill="#666" d="M211.81,72.793h-13.761V9.469h13.761V72.793z"/>
			</g>
			<g>
				<path fill="#666" d="M228.846,72.793h-13.761V9.469h13.761V72.793z"/>
			</g>
		</g>
		<path fill="#666" d="M254.981,23.087c0,0,45.322,40.45,38.072-13.618c0,0,22.75,52.087-38.072,37.604
			C237.178,44.941,241.618,20.699,254.981,23.087z"/>
		<path fill="#666" d="M254.27,51.016c-10.993-1.427-15.459-9.752-15.002-17.418c0.247-4.148,1.843-7.788,4.292-10.406
			c-6.681-8.424-11.438-13.723-11.438-13.723v63.324c24.269,0,29.124,16.95,29.124,16.95l14.805-16.95
			c-3.279-6.702-7.141-13.4-11.188-19.802C261.547,52.557,258.01,51.899,254.27,51.016z"/>
	</g>
</g>
</svg>
