<?xml version="1.0" encoding="utf-8"?>
<!-- Generator: Adobe Illustrator 23.1.0, SVG Export Plug-In . SVG Version: 6.00 Build 0)  -->
<svg version="1.1" id="Layer_1" xmlns="http://www.w3.org/2000/svg" xmlns:xlink="http://www.w3.org/1999/xlink" x="0px" y="0px"
	 viewBox="0 0 170 140" style="enable-background:new 0 0 170 140;" xml:space="preserve">
<style type="text/css">
	.st0{fill:#A332FF;}
	.st1{fill:#6100FF;}
	.st2{fill:#E6E6E6;}
	.st3{fill:#999999;}
	.st4{fill:#FCEE21;stroke:#F89A1C;stroke-width:2;stroke-miterlimit:10.0001;}
	.st5{fill:#E2A4CA;stroke:#F2ABCC;stroke-width:2;stroke-miterlimit:10.0001;}
	.st6{fill:#B3B3B3;stroke:#0A1118;stroke-width:2;stroke-miterlimit:10;}
</style>
<g>
	<path class="st0" d="M15.57,51.9c1.69,0.32,3.41-0.4,4.82-1.39c1.41-0.99,2.58-2.26,3.97-3.29c3.38-2.51,7.92-3.38,11.99-2.31
		c1.13,0.3,2.26,0.76,3.12,1.55c1.6,1.49,1.98,3.83,2.72,5.88c1.23,3.4,3.73,6.33,6.9,8.1c3.5,1.95,7.61,2.44,11.31,4.01
		c1.63,0.69,3.26,1.68,4.03,3.28c0.48,0.99,0.57,2.12,0.57,3.22c0.01,1.98-0.24,3.96-0.75,5.87c-0.59,2.19-1.73,4.54-3.9,5.25
		c-1.84,0.61-3.81-0.15-5.69-0.67c-2.23-0.62-4.55-0.91-6.87-0.86c-1.16,0.02-2.33,0.15-3.37,0.65c-1.68,0.81-2.74,2.47-3.92,3.92
		c-4.96,6.08-13.44,9.06-21.11,7.42c-1.18-0.26-2.4-0.64-3.25-1.5c-1.27-1.29-1.41-3.3-1.25-5.1c0.16-1.78,0.52-3.54,1.09-5.23
		c0.92-2.73,2.38-5.47,1.9-8.31c-0.73-4.24-5.33-6.54-7.68-10.14c-1.3-2-1.88-4.46-1.62-6.83c0.18-1.59,0.79-3.23,2.08-4.18
		s3.34-0.94,4.32,0.34"/>
	<g>
		<path class="st1" d="M15.26,53.02c3.05,0.46,5.49-1.16,7.69-3.09c2.24-1.97,4.47-3.51,7.46-4.08c2.51-0.48,6.04-0.39,8.11,1.33
			c1,0.84,1.46,2.12,1.85,3.32c0.42,1.3,0.8,2.59,1.41,3.82c1.14,2.36,2.88,4.4,4.97,5.97c2.3,1.74,5.04,2.67,7.79,3.47
			c2.59,0.76,5.76,1.34,7.84,3.19c1.15,1.02,1.44,2.34,1.46,3.83c0.02,1.62-0.14,3.24-0.49,4.83c-0.5,2.26-1.52,5.4-4.3,5.51
			c-1.5,0.06-2.98-0.57-4.4-0.94c-1.57-0.41-3.19-0.66-4.82-0.77c-2.98-0.19-5.88,0.09-8.06,2.34c-0.89,0.92-1.61,2-2.44,2.97
			c-0.85,0.98-1.8,1.89-2.83,2.69c-4.01,3.12-9.16,4.68-14.21,4.33c-2.44-0.16-5.61-0.55-6.15-3.4c-0.54-2.83,0.48-6.04,1.47-8.66
			c1.02-2.72,2.12-5.59,1.21-8.5c-0.7-2.25-2.34-4-3.99-5.61c-1.77-1.73-3.7-3.44-4.55-5.84c-0.79-2.22-1.13-6.15,1.2-7.65
			c0.87-0.55,2.01-0.5,2.69,0.29c0.98,1.15,2.63-0.52,1.66-1.66c-1.83-2.14-5.18-1.52-6.82,0.5C7.07,53.55,7,57.1,7.84,59.88
			c0.84,2.76,2.7,4.81,4.72,6.77c1.73,1.68,3.8,3.51,4.19,6.02c0.25,1.67-0.31,3.35-0.87,4.9c-0.59,1.61-1.23,3.19-1.62,4.85
			c-0.63,2.71-1.23,6.3,0.5,8.75c1.68,2.38,5.09,2.79,7.79,2.93c2.8,0.15,5.65-0.25,8.32-1.13c2.68-0.88,5.17-2.23,7.38-4
			c1.09-0.87,2.1-1.86,3-2.94c0.91-1.09,1.69-2.33,2.8-3.23c1.33-1.07,3.04-1.12,4.67-1.1c1.79,0.03,3.56,0.27,5.29,0.73
			c3.01,0.79,6.15,1.9,8.76-0.48c2.18-1.98,2.87-5.26,3.23-8.04c0.39-3.12,0.43-6.62-2.19-8.8c-2.37-1.98-5.59-2.71-8.5-3.55
			c-2.96-0.86-5.87-1.86-8.19-3.97c-2.26-2.05-3.49-4.55-4.4-7.42c-0.43-1.37-0.92-2.74-1.83-3.88c-0.95-1.2-2.31-1.93-3.76-2.37
			c-2.91-0.89-6.14-0.81-9.02,0.11c-1.44,0.46-2.84,1.12-4.08,2c-1.35,0.95-2.5,2.14-3.8,3.15c-1.21,0.94-2.76,1.83-4.35,1.59
			C14.41,50.55,13.78,52.8,15.26,53.02L15.26,53.02z"/>
	</g>
</g>
<g>
	<path class="st2" d="M115.05,51.9c1.69,0.32,3.41-0.4,4.82-1.39c1.41-0.99,2.58-2.26,3.97-3.29c3.38-2.51,7.92-3.38,11.99-2.31
		c1.13,0.3,2.26,0.76,3.12,1.55c1.6,1.49,1.98,3.83,2.72,5.88c1.23,3.4,3.73,6.33,6.9,8.1c3.5,1.95,7.61,2.44,11.31,4.01
		c1.63,0.69,3.26,1.68,4.03,3.28c0.48,0.99,0.57,2.12,0.57,3.22c0.01,1.98-0.24,3.96-0.75,5.87c-0.59,2.19-1.73,4.54-3.9,5.25
		c-1.84,0.61-3.81-0.15-5.69-0.67c-2.23-0.62-4.55-0.91-6.87-0.86c-1.16,0.02-2.33,0.15-3.37,0.65c-1.68,0.81-2.74,2.47-3.92,3.92
		c-4.96,6.08-13.44,9.06-21.11,7.42c-1.18-0.26-2.4-0.64-3.25-1.5c-1.27-1.29-1.41-3.3-1.25-5.1c0.16-1.78,0.52-3.54,1.09-5.23
		c0.92-2.73,2.38-5.47,1.9-8.31c-0.73-4.24-5.33-6.54-7.68-10.14c-1.3-2-1.88-4.46-1.62-6.83c0.18-1.59,0.79-3.23,2.08-4.18
		s3.34-0.94,4.32,0.34"/>
	<g>
		<path class="st3" d="M114.74,53.02c3.05,0.46,5.49-1.16,7.69-3.09c2.24-1.97,4.47-3.51,7.46-4.08c2.51-0.48,6.04-0.39,8.11,1.33
			c1,0.84,1.46,2.12,1.85,3.32c0.42,1.3,0.8,2.59,1.41,3.82c1.14,2.36,2.88,4.4,4.97,5.97c2.3,1.74,5.04,2.67,7.79,3.47
			c2.59,0.76,5.76,1.34,7.84,3.19c1.15,1.02,1.44,2.34,1.46,3.83c0.02,1.62-0.14,3.24-0.49,4.83c-0.5,2.26-1.52,5.4-4.3,5.51
			c-1.5,0.06-2.98-0.57-4.4-0.94c-1.57-0.41-3.19-0.66-4.82-0.77c-2.98-0.19-5.88,0.09-8.06,2.34c-0.89,0.92-1.61,2-2.44,2.97
			c-0.85,0.98-1.8,1.89-2.83,2.69c-4.01,3.12-9.16,4.68-14.21,4.33c-2.44-0.16-5.61-0.55-6.15-3.4c-0.54-2.83,0.48-6.04,1.47-8.66
			c1.02-2.72,2.12-5.59,1.21-8.5c-0.7-2.25-2.34-4-3.99-5.61c-1.77-1.73-3.7-3.44-4.55-5.84c-0.79-2.22-1.13-6.15,1.2-7.65
			c0.87-0.55,2.01-0.5,2.69,0.29c0.98,1.15,2.63-0.52,1.66-1.66c-1.83-2.14-5.18-1.52-6.82,0.5c-1.91,2.34-1.98,5.89-1.14,8.67
			c0.84,2.76,2.7,4.81,4.72,6.77c1.73,1.68,3.8,3.51,4.19,6.02c0.25,1.67-0.31,3.35-0.87,4.9c-0.59,1.61-1.23,3.19-1.62,4.85
			c-0.63,2.71-1.23,6.3,0.5,8.75c1.68,2.38,5.09,2.79,7.79,2.93c2.8,0.15,5.65-0.25,8.32-1.13c2.68-0.88,5.17-2.23,7.38-4
			c1.09-0.87,2.1-1.86,3-2.94c0.91-1.09,1.69-2.33,2.8-3.23c1.33-1.07,3.04-1.12,4.67-1.1c1.79,0.03,3.56,0.27,5.29,0.73
			c3.01,0.79,6.15,1.9,8.76-0.48c2.18-1.98,2.87-5.26,3.23-8.04c0.39-3.12,0.43-6.62-2.19-8.8c-2.37-1.98-5.59-2.71-8.5-3.55
			c-2.96-0.86-5.87-1.86-8.19-3.97c-2.26-2.05-3.49-4.55-4.4-7.42c-0.43-1.37-0.92-2.74-1.83-3.88c-0.95-1.2-2.31-1.93-3.76-2.37
			c-2.91-0.89-6.14-0.81-9.02,0.11c-1.44,0.46-2.84,1.12-4.08,2c-1.35,0.95-2.5,2.14-3.8,3.15c-1.21,0.94-2.76,1.83-4.35,1.59
			C113.89,50.55,113.26,52.8,114.74,53.02L114.74,53.02z"/>
	</g>
</g>
<g>
	
		<rect x="126.14" y="23.54" transform="matrix(0.7688 -0.6395 0.6395 0.7688 -0.7558 94.2504)" class="st4" width="7.65" height="49.26"/>
	
		<rect x="108.15" y="23.06" transform="matrix(0.7688 -0.6395 0.6395 0.7688 8.9136 77.7484)" class="st5" width="7.65" height="6.98"/>
	<polygon class="st6" points="142.78,69.55 148.66,64.66 150.37,72.69 	"/>
</g>
<g>
	<path d="M81.49,72.16c0.06-0.52,0.06-0.55,0.06-1.49c0-2.23,0.39-3.52,1.42-4.78c0.78-0.9,1.03-1.1,3.33-2.49
		c1.58-0.94,2.1-1.61,2.1-2.68c0-1.52-1.13-2.42-3.07-2.42c-1.45,0-2.52,0.52-3.13,1.52c-0.32,0.52-0.45,0.97-0.58,1.97l-6.65-0.65
		c0.32-2.29,0.84-3.55,2.07-4.91C78.91,54.1,81.79,53,85.5,53c5.94,0,9.66,2.81,9.66,7.27c0,1.97-0.65,3.49-2,4.75
		c-0.78,0.71-1.1,0.94-3.91,2.68c-1.36,0.87-1.84,1.71-1.84,3.2c0,0.39,0.03,0.74,0.1,1.26H81.49z M87.76,74.36v6.1h-6.49v-6.1
		H87.76z"/>
</g>
</svg>
