<?xml version="1.0" encoding="utf-8"?>
<!-- Generator: Adobe Illustrator 23.1.0, SVG Export Plug-In . SVG Version: 6.00 Build 0)  -->
<svg version="1.1" id="Layer_1" xmlns="http://www.w3.org/2000/svg" xmlns:xlink="http://www.w3.org/1999/xlink" x="0px" y="0px"
	 viewBox="0 0 170 140" style="enable-background:new 0 0 170 140;" xml:space="preserve">
<style type="text/css">
	.st0{fill:#A332FF;}
	.st1{fill:#6100FF;}
	.st2{fill:#CCCCCC;stroke:#4D4D4D;stroke-width:3;stroke-miterlimit:10;}
	.st3{fill:#4D4D4D;stroke:#FFFFFF;stroke-width:3;stroke-miterlimit:10;}
	.st4{fill:#FFFFFF;stroke:#FFFFFF;stroke-width:3;stroke-miterlimit:10;}
</style>
<g>
	<path class="st0" d="M36.97,25.41c4.3,0.81,8.7-1.01,12.27-3.53s6.59-5.76,10.11-8.36c8.61-6.39,20.18-8.62,30.55-5.89
		c2.89,0.76,5.75,1.92,7.93,3.96c4.07,3.79,5.03,9.74,6.93,14.97c3.15,8.67,9.51,16.13,17.56,20.62c8.91,4.97,19.4,6.24,28.79,10.21
		c4.16,1.76,8.32,4.29,10.27,8.36c1.21,2.52,1.44,5.39,1.45,8.19c0.02,5.04-0.63,10.09-1.92,14.96c-1.48,5.6-4.42,11.55-9.92,13.37
		c-4.69,1.55-9.72-0.38-14.47-1.71c-5.68-1.59-11.6-2.33-17.5-2.2c-2.93,0.07-5.94,0.37-8.58,1.64c-4.28,2.06-6.99,6.29-9.99,9.98
		c-12.63,15.49-34.23,23.08-53.77,18.89c-3.01-0.65-6.11-1.63-8.27-3.82c-3.23-3.28-3.58-8.41-3.19-13
		c0.39-4.53,1.33-9.02,2.78-13.33c2.34-6.95,6.07-13.95,4.84-21.17C41,66.73,29.26,60.89,23.29,51.7c-3.32-5.1-4.8-11.36-4.13-17.41
		c0.45-4.05,2.01-8.21,5.29-10.63s8.51-2.38,10.99,0.85"/>
	<g>
		<path class="st1" d="M36.57,26.85c8.08,1.36,14.36-4.17,20-9.12c5.65-4.96,12.06-8.4,19.58-9.44c3.5-0.48,7.12-0.45,10.6,0.17
			c3.45,0.61,7.2,1.64,9.87,4.04c2.51,2.26,3.77,5.45,4.8,8.6c1.06,3.25,2,6.52,3.48,9.62c3,6.27,7.69,11.69,13.37,15.68
			c6.23,4.37,13.6,6.47,20.82,8.55c3.72,1.07,7.44,2.16,11.02,3.63c3.15,1.29,6.36,2.99,8.56,5.66c2.52,3.06,2.73,7.07,2.67,10.86
			c-0.07,4.2-0.61,8.38-1.62,12.46c-1.5,6.05-4.73,13.48-11.95,13.75c-4.04,0.15-7.91-1.46-11.75-2.47
			c-4.06-1.07-8.24-1.71-12.43-1.93c-3.91-0.21-8.14-0.27-11.9,0.98c-3.35,1.11-6.01,3.36-8.27,6c-2.21,2.57-4.14,5.36-6.48,7.83
			c-2.31,2.44-4.85,4.66-7.59,6.6c-10.8,7.64-24.3,11.3-37.47,9.86c-3.32-0.36-6.97-0.91-9.95-2.47c-3.13-1.64-4.69-4.57-5.14-7.99
			c-0.49-3.74,0.05-7.67,0.77-11.34c0.79-4.04,2.1-7.9,3.56-11.75c2.63-6.94,5.05-14.28,2-21.51c-2.37-5.62-7.03-9.81-11.3-13.98
			c-4.94-4.82-9.28-9.87-10.75-16.82c-0.75-3.54-0.78-7.35,0.18-10.86c0.83-3.03,2.6-6.25,5.67-7.47c2.6-1.03,5.68-0.67,7.5,1.57
			c1.22,1.5,3.33-0.63,2.12-2.12c-2.03-2.51-5.38-3.33-8.48-2.84c-3.38,0.54-6.13,2.76-7.87,5.66c-3.86,6.44-3.24,15.21-0.42,21.9
			c2.68,6.36,7.76,10.95,12.58,15.68c4.56,4.48,9.16,9.58,9.27,16.34c0.07,4.13-1.32,8.12-2.75,11.94
			c-1.51,4.06-3.04,8.06-3.97,12.31c-1.46,6.71-2.87,15.8,2.22,21.39c2.54,2.78,6.34,3.92,9.92,4.63c3.43,0.68,6.93,1.04,10.43,1.04
			c6.92,0.02,13.87-1.26,20.34-3.71c6.49-2.45,12.53-6,17.75-10.58c2.65-2.33,5-4.92,7.17-7.7c2.18-2.79,4.37-5.85,7.47-7.68
			c3.61-2.13,8.12-2.1,12.18-1.97c4.41,0.15,8.79,0.8,13.06,1.94c4.03,1.07,8.08,2.68,12.32,2.52c3.59-0.14,6.85-1.68,9.26-4.33
			c4.98-5.48,6.49-13.75,7.1-20.87c0.35-4.08,0.59-8.63-0.79-12.56c-1.22-3.46-3.74-6.09-6.78-8.05
			c-6.66-4.29-14.88-5.81-22.35-8.12c-7.41-2.29-14.28-5.51-19.74-11.14c-2.54-2.62-4.68-5.59-6.37-8.82
			c-1.66-3.17-2.63-6.55-3.73-9.94c-1.08-3.34-2.4-6.69-4.82-9.3c-2.58-2.78-6.22-4.28-9.84-5.16c-7.22-1.76-14.98-1.28-21.95,1.29
			c-3.56,1.31-6.89,3.13-9.89,5.45c-3.33,2.57-6.25,5.68-9.73,8.06c-3.12,2.13-6.92,3.79-10.77,3.14
			C35.48,23.64,34.66,26.53,36.57,26.85L36.57,26.85z"/>
	</g>
</g>
<rect x="61.5" y="48.5" class="st2" width="50" height="36"/>
<circle class="st3" cx="93.5" cy="66.5" r="12"/>
<rect x="66.5" y="54.5" class="st4" width="7" height="4"/>
</svg>
