<?xml version="1.0" encoding="utf-8"?>
<!-- Generator: Adobe Illustrator 23.1.0, SVG Export Plug-In . SVG Version: 6.00 Build 0)  -->
<svg version="1.1" xmlns="http://www.w3.org/2000/svg" xmlns:xlink="http://www.w3.org/1999/xlink" x="0px" y="0px"
	 viewBox="0 0 170 140" style="enable-background:new 0 0 170 140;" xml:space="preserve">
<style type="text/css">
	.st0{fill:#E6E6E6;stroke:#B3B3B3;stroke-width:3;stroke-miterlimit:10;}
	.st1{fill:#A332FF;}
	.st2{fill:#6100FF;}
	.st3{fill:none;stroke:#FF0000;stroke-width:2;stroke-miterlimit:10;}
	.st4{fill:none;stroke:#F2F2F2;stroke-width:2;stroke-miterlimit:10;}
</style>
<g id="Layer_1">
	<circle class="st0" cx="110.5" cy="44.5" r="35"/>
	<g>
		<path class="st1" d="M23.49,75.48c2.31,0.43,4.67-0.54,6.58-1.89c1.92-1.35,3.54-3.09,5.42-4.49c4.62-3.43,10.82-4.62,16.38-3.16
			c1.55,0.41,3.08,1.03,4.25,2.12c2.18,2.04,2.7,5.23,3.72,8.03c1.69,4.65,5.1,8.65,9.42,11.06c4.78,2.66,10.4,3.34,15.44,5.48
			c2.23,0.94,4.46,2.3,5.51,4.48c0.65,1.35,0.77,2.89,0.78,4.39c0.01,2.7-0.34,5.41-1.03,8.02c-0.8,3-2.37,6.2-5.32,7.17
			c-2.51,0.83-5.21-0.2-7.76-0.92c-3.05-0.85-6.22-1.25-9.39-1.18c-1.57,0.04-3.18,0.2-4.6,0.88c-2.3,1.1-3.75,3.38-5.36,5.35
			c-6.77,8.31-18.36,12.38-28.84,10.13c-1.62-0.35-3.28-0.87-4.44-2.05c-1.73-1.76-1.92-4.51-1.71-6.97
			c0.21-2.43,0.71-4.84,1.49-7.15c1.25-3.73,3.26-7.48,2.59-11.36c-0.99-5.79-7.29-8.93-10.49-13.86c-1.78-2.74-2.57-6.1-2.21-9.34
			c0.24-2.17,1.08-4.4,2.84-5.7c1.76-1.3,4.57-1.28,5.9,0.46"/>
		<g>
			<path class="st2" d="M23.09,76.93c4.23,0.64,7.57-1.7,10.6-4.36c3.05-2.69,6.17-4.73,10.24-5.47c3.39-0.62,8.01-0.45,10.84,1.77
				c1.38,1.08,2.05,2.78,2.58,4.4c0.58,1.75,1.08,3.5,1.85,5.18c1.52,3.28,3.9,6.15,6.77,8.34c3.11,2.38,6.8,3.67,10.52,4.76
				c3.61,1.06,8.04,1.85,10.95,4.41c1.49,1.31,1.99,2.99,2.05,4.94c0.07,2.3-0.15,4.6-0.63,6.85c-0.64,2.99-1.91,7.18-5.45,7.73
				c-2.13,0.33-4.34-0.64-6.35-1.19c-2.11-0.57-4.29-0.93-6.47-1.09c-4.08-0.3-8.14-0.01-11.16,3.04c-1.26,1.27-2.26,2.78-3.42,4.13
				c-1.14,1.32-2.4,2.53-3.76,3.61c-5.55,4.39-12.8,6.57-19.85,6.04c-3.35-0.25-7.52-0.82-8.27-4.7c-0.75-3.92,0.68-8.34,2.04-11.97
				c1.39-3.69,2.88-7.63,1.6-11.58c-0.99-3.05-3.22-5.41-5.47-7.6c-2.49-2.43-5.13-4.82-6.26-8.22c-1.01-3.03-1.37-8.25,1.76-10.28
				c1.22-0.79,2.85-0.72,3.81,0.41c1.25,1.47,3.37-0.66,2.12-2.12c-2.51-2.96-7.1-1.98-9.28,0.82c-2.51,3.23-2.56,8.02-1.38,11.77
				c1.19,3.79,3.82,6.56,6.6,9.26c2.36,2.29,5.13,4.82,5.54,8.28c0.27,2.26-0.48,4.5-1.24,6.59c-0.8,2.18-1.66,4.33-2.19,6.6
				c-0.87,3.75-1.67,8.69,0.82,12.01c2.32,3.09,6.94,3.6,10.52,3.78c3.85,0.19,7.77-0.38,11.42-1.62c3.68-1.24,7.09-3.12,10.09-5.58
				c1.49-1.22,2.86-2.6,4.07-4.1c1.22-1.51,2.34-3.26,3.96-4.4c1.87-1.32,4.29-1.31,6.49-1.24c2.48,0.07,4.93,0.45,7.33,1.12
				c4.01,1.11,8.28,2.34,11.62-0.98c2.87-2.85,3.77-7.31,4.2-11.18c0.49-4.31,0.35-8.85-3.34-11.73c-3.32-2.59-7.72-3.54-11.68-4.7
				c-4.12-1.2-8.08-2.69-11.23-5.72c-2.97-2.86-4.46-6.26-5.7-10.11c-0.59-1.84-1.29-3.65-2.54-5.14c-1.32-1.58-3.21-2.51-5.16-3.08
				c-3.96-1.15-8.35-1-12.25,0.3c-1.89,0.63-3.72,1.52-5.35,2.67c-1.84,1.31-3.41,2.93-5.19,4.31c-1.67,1.29-3.79,2.49-5.98,2.15
				C22,73.75,21.18,76.64,23.09,76.93L23.09,76.93z"/>
		</g>
	</g>
</g>
<g id="Layer_2">
	<g>
		<line class="st3" x1="48" y1="90" x2="48" y2="104"/>
		<line class="st3" x1="41" y1="97" x2="55" y2="97"/>
		<circle class="st4" cx="48" cy="97" r="7"/>
	</g>
	<g>
		<path class="st1" d="M39.49,17.48c2.31,0.43,4.67-0.54,6.58-1.89s3.54-3.09,5.42-4.49c4.62-3.43,10.82-4.62,16.38-3.16
			c1.55,0.41,3.08,1.03,4.25,2.12c2.18,2.04,2.7,5.23,3.72,8.03c1.69,4.65,5.1,8.65,9.42,11.06c4.78,2.66,10.4,3.34,15.44,5.48
			c2.23,0.94,4.46,2.3,5.51,4.48c0.65,1.35,0.77,2.89,0.78,4.39c0.01,2.7-0.34,5.41-1.03,8.02c-0.8,3-2.37,6.2-5.32,7.17
			c-2.51,0.83-5.21-0.2-7.76-0.92c-3.05-0.85-6.22-1.25-9.39-1.18c-1.57,0.04-3.18,0.2-4.6,0.88c-2.3,1.1-3.75,3.38-5.36,5.35
			c-6.77,8.31-18.36,12.38-28.84,10.13c-1.62-0.35-3.28-0.87-4.44-2.05c-1.73-1.76-1.92-4.51-1.71-6.97
			c0.21-2.43,0.71-4.84,1.49-7.15c1.25-3.73,3.26-7.48,2.59-11.36c-0.99-5.79-7.29-8.93-10.49-13.86c-1.78-2.74-2.57-6.1-2.21-9.34
			c0.24-2.17,1.08-4.4,2.84-5.7c1.76-1.3,4.57-1.28,5.9,0.46"/>
		<g>
			<path class="st2" d="M39.09,18.93c4.23,0.64,7.57-1.7,10.6-4.36c3.05-2.69,6.17-4.73,10.24-5.47c3.39-0.62,8.01-0.45,10.84,1.77
				c1.38,1.08,2.05,2.78,2.58,4.4c0.58,1.75,1.08,3.5,1.85,5.18c1.52,3.28,3.9,6.15,6.77,8.34c3.11,2.38,6.8,3.67,10.52,4.76
				c3.61,1.06,8.04,1.85,10.95,4.41c1.49,1.31,1.99,2.99,2.05,4.94c0.07,2.3-0.15,4.6-0.63,6.85c-0.64,2.99-1.91,7.18-5.45,7.73
				c-2.13,0.33-4.34-0.64-6.35-1.19c-2.11-0.57-4.29-0.93-6.47-1.09c-4.08-0.3-8.14-0.01-11.16,3.04C74.16,59.49,73.17,61,72,62.35
				c-1.14,1.32-2.4,2.53-3.76,3.61c-5.55,4.39-12.8,6.57-19.85,6.04c-3.35-0.25-7.52-0.82-8.27-4.7c-0.75-3.92,0.68-8.34,2.04-11.97
				c1.39-3.69,2.88-7.63,1.6-11.58c-0.99-3.05-3.22-5.41-5.47-7.6c-2.49-2.43-5.13-4.82-6.26-8.22c-1.01-3.03-1.37-8.25,1.76-10.28
				c1.22-0.79,2.85-0.72,3.81,0.41c1.25,1.47,3.37-0.66,2.12-2.12c-2.51-2.96-7.1-1.98-9.28,0.82c-2.51,3.23-2.56,8.02-1.38,11.77
				c1.19,3.79,3.82,6.56,6.6,9.26c2.36,2.29,5.13,4.82,5.54,8.28c0.27,2.26-0.48,4.5-1.24,6.59c-0.8,2.18-1.66,4.33-2.19,6.6
				c-0.87,3.75-1.67,8.69,0.82,12.01c2.32,3.09,6.94,3.6,10.52,3.78c3.85,0.19,7.77-0.38,11.42-1.62c3.68-1.24,7.09-3.12,10.09-5.58
				c1.49-1.22,2.86-2.6,4.07-4.1c1.22-1.51,2.34-3.26,3.96-4.4c1.87-1.32,4.29-1.31,6.49-1.24c2.48,0.07,4.93,0.45,7.33,1.12
				c4.01,1.11,8.28,2.34,11.62-0.98c2.87-2.85,3.77-7.31,4.2-11.18c0.49-4.31,0.35-8.85-3.34-11.73c-3.32-2.59-7.72-3.54-11.68-4.7
				c-4.12-1.2-8.08-2.69-11.23-5.72c-2.97-2.86-4.46-6.26-5.7-10.11c-0.59-1.84-1.29-3.65-2.54-5.14C72.5,8.1,70.6,7.17,68.66,6.6
				c-3.96-1.15-8.35-1-12.25,0.3c-1.89,0.63-3.72,1.52-5.35,2.67c-1.84,1.31-3.41,2.93-5.19,4.31c-1.67,1.29-3.79,2.49-5.98,2.15
				C38,15.75,37.18,18.64,39.09,18.93L39.09,18.93z"/>
		</g>
	</g>
	<g>
		<line class="st3" x1="64" y1="32" x2="64" y2="46"/>
		<line class="st3" x1="57" y1="39" x2="71" y2="39"/>
		<circle class="st4" cx="64" cy="39" r="7"/>
	</g>
	<g>
		<path class="st1" d="M97.49,49.48c2.31,0.43,4.67-0.54,6.58-1.89c1.92-1.35,3.54-3.09,5.42-4.49c4.62-3.43,10.82-4.62,16.38-3.16
			c1.55,0.41,3.08,1.03,4.25,2.12c2.18,2.04,2.7,5.23,3.72,8.03c1.69,4.65,5.1,8.65,9.42,11.06c4.78,2.66,10.4,3.34,15.44,5.48
			c2.23,0.94,4.46,2.3,5.51,4.48c0.65,1.35,0.77,2.89,0.78,4.39c0.01,2.7-0.34,5.41-1.03,8.02c-0.8,3-2.37,6.2-5.32,7.17
			c-2.51,0.83-5.21-0.2-7.76-0.92c-3.05-0.85-6.22-1.25-9.39-1.18c-1.57,0.04-3.18,0.2-4.6,0.88c-2.3,1.1-3.75,3.38-5.36,5.35
			c-6.77,8.31-18.36,12.38-28.84,10.13c-1.62-0.35-3.28-0.87-4.44-2.05c-1.73-1.76-1.92-4.51-1.71-6.97
			c0.21-2.43,0.71-4.84,1.49-7.15c1.25-3.73,3.26-7.48,2.59-11.36c-0.99-5.79-7.29-8.93-10.49-13.86c-1.78-2.74-2.57-6.1-2.21-9.34
			c0.24-2.17,1.08-4.4,2.84-5.7c1.76-1.3,4.57-1.28,5.9,0.46"/>
		<g>
			<path class="st2" d="M97.09,50.93c4.23,0.64,7.57-1.7,10.6-4.36c3.05-2.69,6.17-4.73,10.24-5.47c3.39-0.62,8.01-0.45,10.84,1.77
				c1.38,1.08,2.05,2.78,2.58,4.4c0.58,1.75,1.08,3.5,1.85,5.18c1.52,3.28,3.9,6.15,6.77,8.34c3.11,2.38,6.8,3.67,10.52,4.76
				c3.61,1.06,8.04,1.85,10.95,4.41c1.49,1.31,1.99,2.99,2.05,4.94c0.07,2.3-0.15,4.6-0.63,6.85c-0.64,2.99-1.91,7.18-5.45,7.73
				c-2.13,0.33-4.34-0.64-6.35-1.19c-2.11-0.57-4.29-0.93-6.47-1.09c-4.08-0.3-8.14-0.01-11.16,3.04c-1.26,1.27-2.26,2.78-3.42,4.13
				c-1.14,1.32-2.4,2.53-3.76,3.61c-5.55,4.39-12.8,6.57-19.85,6.04c-3.35-0.25-7.52-0.82-8.27-4.7c-0.75-3.92,0.68-8.34,2.04-11.97
				c1.39-3.69,2.88-7.63,1.6-11.58c-0.99-3.05-3.22-5.41-5.47-7.6c-2.49-2.43-5.13-4.82-6.26-8.22c-1.01-3.03-1.37-8.25,1.76-10.28
				c1.22-0.79,2.85-0.72,3.81,0.41c1.25,1.47,3.37-0.66,2.12-2.12c-2.51-2.96-7.1-1.98-9.28,0.82c-2.51,3.23-2.56,8.02-1.38,11.77
				c1.19,3.79,3.82,6.56,6.6,9.26c2.36,2.29,5.13,4.82,5.54,8.28c0.27,2.26-0.48,4.5-1.24,6.59c-0.8,2.18-1.66,4.33-2.19,6.6
				c-0.87,3.75-1.67,8.69,0.82,12.01c2.32,3.09,6.94,3.6,10.52,3.78c3.85,0.19,7.77-0.38,11.42-1.62c3.68-1.24,7.09-3.12,10.09-5.58
				c1.49-1.22,2.86-2.6,4.07-4.1c1.22-1.51,2.34-3.26,3.96-4.4c1.87-1.32,4.29-1.31,6.49-1.24c2.48,0.07,4.93,0.45,7.33,1.12
				c4.01,1.11,8.28,2.34,11.62-0.98c2.87-2.85,3.77-7.31,4.2-11.18c0.49-4.31,0.35-8.85-3.34-11.73c-3.32-2.59-7.72-3.54-11.68-4.7
				c-4.12-1.2-8.08-2.69-11.23-5.72c-2.97-2.86-4.46-6.26-5.7-10.11c-0.59-1.84-1.29-3.65-2.54-5.14c-1.32-1.58-3.21-2.51-5.16-3.08
				c-3.96-1.15-8.35-1-12.25,0.3c-1.89,0.63-3.72,1.52-5.35,2.67c-1.84,1.31-3.41,2.93-5.19,4.31c-1.67,1.29-3.79,2.49-5.98,2.15
				C96,47.75,95.18,50.64,97.09,50.93L97.09,50.93z"/>
		</g>
	</g>
	<g>
		<line class="st3" x1="122" y1="64" x2="122" y2="78"/>
		<line class="st3" x1="115" y1="71" x2="129" y2="71"/>
		<circle class="st4" cx="122" cy="71" r="7"/>
	</g>
	<circle class="st0" cx="91" cy="111" r="21.5"/>
</g>
</svg>
