<?xml version="1.0" encoding="utf-8"?>
<!-- Generator: Adobe Illustrator 23.1.0, SVG Export Plug-In . SVG Version: 6.00 Build 0)  -->
<svg version="1.1" xmlns="http://www.w3.org/2000/svg" xmlns:xlink="http://www.w3.org/1999/xlink" x="0px" y="0px"
	 viewBox="0 0 170 140" style="enable-background:new 0 0 170 140;" xml:space="preserve">
<style type="text/css">
	.st0{fill:#E6E6E6;stroke:#B3B3B3;stroke-width:3;stroke-miterlimit:10;}
	.st1{fill:#A332FF;}
	.st2{fill:#6100FF;}
	.st3{opacity:0.5;fill:#333333;}
	.st4{fill:none;stroke:#00FF00;stroke-width:3;stroke-miterlimit:10;}
</style>
<g id="Layer_1">
	<circle class="st0" cx="110.5" cy="47.5" r="35"/>
	<g>
		<path class="st1" d="M-6.23,50.53c3.33,0.63,6.74-0.78,9.51-2.74c2.77-1.96,5.11-4.46,7.83-6.48c6.68-4.95,15.63-6.68,23.67-4.57
			c2.24,0.59,4.45,1.49,6.15,3.07c3.15,2.94,3.9,7.55,5.37,11.6c2.44,6.72,7.37,12.5,13.61,15.98c6.91,3.85,15.03,4.83,22.31,7.91
			c3.22,1.36,6.45,3.32,7.96,6.48c0.94,1.95,1.12,4.18,1.13,6.34c0.02,3.91-0.48,7.82-1.49,11.59c-1.15,4.34-3.43,8.95-7.69,10.36
			c-3.63,1.2-7.53-0.29-11.22-1.32c-4.4-1.23-8.99-1.81-13.56-1.7c-2.27,0.05-4.6,0.29-6.65,1.27c-3.32,1.6-5.42,4.88-7.74,7.73
			c-9.79,12.01-26.53,17.89-41.67,14.64c-2.33-0.5-4.73-1.26-6.41-2.96c-2.5-2.54-2.78-6.52-2.47-10.07
			c0.3-3.51,1.03-6.99,2.15-10.33c1.81-5.38,4.71-10.81,3.75-16.41C-3.1,82.55-12.2,78.02-16.83,70.9
			c-2.57-3.95-3.72-8.81-3.2-13.49c0.35-3.14,1.56-6.36,4.1-8.24c2.54-1.87,6.6-1.85,8.52,0.66"/>
		<g>
			<path class="st2" d="M-6.63,51.97c6.28,1.02,11.16-3.04,15.57-6.93c4.37-3.85,9.25-6.59,15.09-7.43c2.63-0.38,5.38-0.37,8,0.06
				c2.74,0.46,5.76,1.25,7.84,3.19c1.91,1.78,2.84,4.29,3.62,6.73c0.81,2.51,1.55,5.02,2.71,7.39c2.3,4.71,5.81,8.78,10.05,11.85
				c4.75,3.44,10.41,5.13,15.97,6.74c5.16,1.48,11.6,2.82,15.35,6.98c2,2.22,2.26,5.18,2.24,8.04c-0.02,3.31-0.42,6.6-1.2,9.82
				c-1.12,4.59-3.5,10.42-9.02,10.61c-3.07,0.11-6.03-1.13-8.95-1.9c-3.1-0.82-6.29-1.31-9.49-1.5c-3.04-0.18-6.3-0.23-9.25,0.65
				c-2.52,0.76-4.61,2.32-6.36,4.25c-1.8,1.98-3.29,4.21-5.1,6.18c-1.68,1.83-3.53,3.53-5.52,5.01c-8.32,6.17-18.86,9.2-29.19,8.18
				c-2.49-0.24-5.2-0.64-7.49-1.68c-2.56-1.16-3.91-3.35-4.29-6.08c-0.81-5.81,1.13-12.02,3.15-17.38
				c2.02-5.36,4.13-11.11,1.96-16.78c-1.68-4.39-5.11-7.7-8.42-10.9c-3.77-3.66-7.33-7.38-8.69-12.62
				c-1.17-4.5-1.16-12.42,3.99-14.65c1.92-0.83,4.21-0.57,5.57,1.09c1.23,1.49,3.34-0.64,2.12-2.12c-1.59-1.93-4.14-2.65-6.56-2.33
				c-2.69,0.35-4.87,1.92-6.36,4.15c-3.3,4.91-2.92,12.03-0.79,17.31c2.04,5.04,5.91,8.67,9.71,12.4c3.47,3.4,7.16,7.25,7.35,12.4
				c0.13,3.31-1.01,6.5-2.15,9.56c-1.17,3.15-2.36,6.27-3.06,9.56c-1.13,5.29-2.16,12.3,1.79,16.72c1.91,2.14,4.78,3.08,7.5,3.66
				c2.63,0.55,5.32,0.85,8.01,0.9c5.48,0.09,11.02-0.88,16.16-2.78c5.16-1.91,9.96-4.71,14.11-8.34c2.08-1.82,3.92-3.86,5.63-6.03
				c1.66-2.11,3.31-4.44,5.66-5.85c2.69-1.61,6.05-1.6,9.09-1.51c3.5,0.1,6.96,0.61,10.34,1.52c3.11,0.83,6.25,2.06,9.52,1.94
				c2.81-0.1,5.4-1.27,7.32-3.31c4-4.25,5.21-10.77,5.72-16.37c0.28-3.05,0.43-6.36-0.4-9.34c-0.78-2.8-2.6-4.97-4.93-6.64
				c-4.98-3.58-11.48-4.8-17.24-6.54c-5.87-1.77-11.39-4.15-15.76-8.57c-1.93-1.96-3.57-4.17-4.89-6.58
				c-1.33-2.44-2.12-5.04-2.96-7.68c-0.85-2.65-1.84-5.28-3.67-7.42c-1.93-2.26-4.77-3.53-7.59-4.27c-5.68-1.5-11.88-1.19-17.4,0.8
				c-2.79,1-5.41,2.39-7.78,4.18c-2.53,1.92-4.72,4.24-7.3,6.09c-2.44,1.75-5.45,3.22-8.54,2.71C-7.72,48.77-8.53,51.66-6.63,51.97
				L-6.63,51.97z"/>
		</g>
	</g>
</g>
<g id="Layer_2">
	<rect x="0" y="133" class="st3" width="170" height="7"/>
	<rect class="st3" width="170" height="32"/>
	<rect x="94" y="32" class="st3" width="76" height="101"/>
	<rect x="1.5" y="33.5" class="st4" width="91" height="100"/>
</g>
</svg>
